<mxfile host="app.diagrams.net" agent="Mozilla/5.0 (Macintosh; Intel Mac OS X 10_15_7) AppleWebKit/605.1.15 (KHTML, like Gecko) Version/18.1.1 Safari/605.1.15" version="24.8.6">
  <diagram name="Pagina-1" id="IaX66flkX1lBjkUhb02D">
    <mxGraphModel grid="1" page="1" gridSize="10" guides="1" tooltips="1" connect="1" arrows="1" fold="1" pageScale="1" pageWidth="827" pageHeight="1169" math="0" shadow="0">
      <root>
        <mxCell id="0" />
        <mxCell id="1" parent="0" />
        <mxCell id="VvuV55RN8hOEkCKC1M-V-3" value="&lt;i style=&quot;font-variant-caps: normal; font-weight: 400; text-indent: 0px; text-transform: none; white-space: normal; word-spacing: 0px; -webkit-text-stroke-width: 0px; text-decoration: none; caret-color: rgb(60, 64, 67); color: rgb(60, 64, 67); font-family: Roboto, Arial, sans-serif; font-size: 14px; letter-spacing: 0.2px;&quot;&gt;Esercizio01: Crea un Diagramma di Flusso che prenda in input 4 valori e trovi il massimo tra i 4.&amp;nbsp;&lt;/i&gt;&lt;br style=&quot;font-style: normal; font-variant-caps: normal; font-weight: 400; text-indent: 0px; text-transform: none; white-space: normal; word-spacing: 0px; -webkit-text-stroke-width: 0px; text-decoration: none; caret-color: rgb(60, 64, 67); color: rgb(60, 64, 67); font-family: Roboto, Arial, sans-serif; font-size: 14px; letter-spacing: 0.2px;&quot;&gt;&lt;i style=&quot;font-variant-caps: normal; font-weight: 400; text-indent: 0px; text-transform: none; white-space: normal; word-spacing: 0px; -webkit-text-stroke-width: 0px; text-decoration: none; caret-color: rgb(60, 64, 67); color: rgb(60, 64, 67); font-family: Roboto, Arial, sans-serif; font-size: 14px; letter-spacing: 0.2px;&quot;&gt;Il diagramma deve dare in output anche il valore trovato.&lt;/i&gt;" style="text;whiteSpace=wrap;html=1;align=center;" vertex="1" parent="1">
          <mxGeometry x="91" y="40" width="646" height="50" as="geometry" />
        </mxCell>
        <mxCell id="VvuV55RN8hOEkCKC1M-V-6" value="" style="edgeStyle=orthogonalEdgeStyle;rounded=0;orthogonalLoop=1;jettySize=auto;html=1;" edge="1" parent="1" source="VvuV55RN8hOEkCKC1M-V-4" target="VvuV55RN8hOEkCKC1M-V-5">
          <mxGeometry relative="1" as="geometry" />
        </mxCell>
        <mxCell id="VvuV55RN8hOEkCKC1M-V-4" value="" style="ellipse;whiteSpace=wrap;html=1;aspect=fixed;" vertex="1" parent="1">
          <mxGeometry x="384" y="90" width="60" height="60" as="geometry" />
        </mxCell>
        <mxCell id="VvuV55RN8hOEkCKC1M-V-8" value="" style="edgeStyle=orthogonalEdgeStyle;rounded=0;orthogonalLoop=1;jettySize=auto;html=1;" edge="1" parent="1" source="VvuV55RN8hOEkCKC1M-V-5" target="VvuV55RN8hOEkCKC1M-V-7">
          <mxGeometry relative="1" as="geometry" />
        </mxCell>
        <mxCell id="VvuV55RN8hOEkCKC1M-V-5" value="A,B,C,D" style="shape=hexagon;perimeter=hexagonPerimeter2;whiteSpace=wrap;html=1;fixedSize=1;" vertex="1" parent="1">
          <mxGeometry x="354" y="170" width="120" height="80" as="geometry" />
        </mxCell>
        <mxCell id="VvuV55RN8hOEkCKC1M-V-10" value="" style="edgeStyle=orthogonalEdgeStyle;rounded=0;orthogonalLoop=1;jettySize=auto;html=1;" edge="1" parent="1" source="VvuV55RN8hOEkCKC1M-V-7" target="VvuV55RN8hOEkCKC1M-V-9">
          <mxGeometry relative="1" as="geometry" />
        </mxCell>
        <mxCell id="VvuV55RN8hOEkCKC1M-V-7" value="A,B,C,D" style="shape=parallelogram;perimeter=parallelogramPerimeter;whiteSpace=wrap;html=1;fixedSize=1;" vertex="1" parent="1">
          <mxGeometry x="354" y="270" width="120" height="60" as="geometry" />
        </mxCell>
        <mxCell id="VvuV55RN8hOEkCKC1M-V-12" value="" style="edgeStyle=orthogonalEdgeStyle;rounded=0;orthogonalLoop=1;jettySize=auto;html=1;" edge="1" parent="1" source="VvuV55RN8hOEkCKC1M-V-9" target="VvuV55RN8hOEkCKC1M-V-11">
          <mxGeometry relative="1" as="geometry">
            <Array as="points">
              <mxPoint x="570" y="390" />
            </Array>
          </mxGeometry>
        </mxCell>
        <mxCell id="VvuV55RN8hOEkCKC1M-V-33" style="edgeStyle=orthogonalEdgeStyle;rounded=0;orthogonalLoop=1;jettySize=auto;html=1;entryX=0.5;entryY=0;entryDx=0;entryDy=0;" edge="1" parent="1" source="VvuV55RN8hOEkCKC1M-V-9" target="VvuV55RN8hOEkCKC1M-V-32">
          <mxGeometry relative="1" as="geometry" />
        </mxCell>
        <mxCell id="VvuV55RN8hOEkCKC1M-V-9" value="A &amp;gt; B" style="rhombus;whiteSpace=wrap;html=1;" vertex="1" parent="1">
          <mxGeometry x="374" y="350" width="80" height="80" as="geometry" />
        </mxCell>
        <mxCell id="VvuV55RN8hOEkCKC1M-V-14" value="" style="edgeStyle=orthogonalEdgeStyle;rounded=0;orthogonalLoop=1;jettySize=auto;html=1;entryX=0.5;entryY=0;entryDx=0;entryDy=0;" edge="1" parent="1" source="VvuV55RN8hOEkCKC1M-V-11" target="VvuV55RN8hOEkCKC1M-V-13">
          <mxGeometry relative="1" as="geometry">
            <Array as="points">
              <mxPoint x="680" y="450" />
            </Array>
          </mxGeometry>
        </mxCell>
        <mxCell id="VvuV55RN8hOEkCKC1M-V-31" style="edgeStyle=orthogonalEdgeStyle;rounded=0;orthogonalLoop=1;jettySize=auto;html=1;entryX=0.5;entryY=0;entryDx=0;entryDy=0;" edge="1" parent="1" source="VvuV55RN8hOEkCKC1M-V-11" target="VvuV55RN8hOEkCKC1M-V-30">
          <mxGeometry relative="1" as="geometry" />
        </mxCell>
        <mxCell id="VvuV55RN8hOEkCKC1M-V-11" value="A &amp;gt; C" style="rhombus;whiteSpace=wrap;html=1;" vertex="1" parent="1">
          <mxGeometry x="530" y="410" width="80" height="80" as="geometry" />
        </mxCell>
        <mxCell id="VvuV55RN8hOEkCKC1M-V-18" value="" style="edgeStyle=orthogonalEdgeStyle;rounded=0;orthogonalLoop=1;jettySize=auto;html=1;" edge="1" parent="1" source="VvuV55RN8hOEkCKC1M-V-13" target="VvuV55RN8hOEkCKC1M-V-17">
          <mxGeometry relative="1" as="geometry">
            <Array as="points">
              <mxPoint x="760" y="530" />
            </Array>
          </mxGeometry>
        </mxCell>
        <mxCell id="VvuV55RN8hOEkCKC1M-V-21" value="" style="edgeStyle=orthogonalEdgeStyle;rounded=0;orthogonalLoop=1;jettySize=auto;html=1;" edge="1" parent="1" source="VvuV55RN8hOEkCKC1M-V-13" target="VvuV55RN8hOEkCKC1M-V-20">
          <mxGeometry relative="1" as="geometry">
            <Array as="points">
              <mxPoint x="585" y="530" />
            </Array>
          </mxGeometry>
        </mxCell>
        <mxCell id="VvuV55RN8hOEkCKC1M-V-13" value="A &amp;gt; D" style="rhombus;whiteSpace=wrap;html=1;" vertex="1" parent="1">
          <mxGeometry x="640" y="490" width="80" height="80" as="geometry" />
        </mxCell>
        <mxCell id="VvuV55RN8hOEkCKC1M-V-15" value="V" style="text;html=1;align=center;verticalAlign=middle;resizable=0;points=[];autosize=1;strokeColor=none;fillColor=none;" vertex="1" parent="1">
          <mxGeometry x="525" y="358" width="30" height="30" as="geometry" />
        </mxCell>
        <mxCell id="VvuV55RN8hOEkCKC1M-V-16" value="V" style="text;html=1;align=center;verticalAlign=middle;resizable=0;points=[];autosize=1;strokeColor=none;fillColor=none;" vertex="1" parent="1">
          <mxGeometry x="645" y="418" width="30" height="30" as="geometry" />
        </mxCell>
        <mxCell id="VvuV55RN8hOEkCKC1M-V-24" style="edgeStyle=orthogonalEdgeStyle;rounded=0;orthogonalLoop=1;jettySize=auto;html=1;entryX=1;entryY=0.5;entryDx=0;entryDy=0;" edge="1" parent="1" source="VvuV55RN8hOEkCKC1M-V-17" target="VvuV55RN8hOEkCKC1M-V-22">
          <mxGeometry relative="1" as="geometry" />
        </mxCell>
        <mxCell id="VvuV55RN8hOEkCKC1M-V-17" value="A" style="shape=parallelogram;perimeter=parallelogramPerimeter;whiteSpace=wrap;html=1;fixedSize=1;" vertex="1" parent="1">
          <mxGeometry x="700" y="585" width="120" height="60" as="geometry" />
        </mxCell>
        <mxCell id="VvuV55RN8hOEkCKC1M-V-19" value="V" style="text;html=1;align=center;verticalAlign=middle;resizable=0;points=[];autosize=1;strokeColor=none;fillColor=none;" vertex="1" parent="1">
          <mxGeometry x="735" y="498" width="30" height="30" as="geometry" />
        </mxCell>
        <mxCell id="VvuV55RN8hOEkCKC1M-V-23" value="" style="edgeStyle=orthogonalEdgeStyle;rounded=0;orthogonalLoop=1;jettySize=auto;html=1;" edge="1" parent="1" source="VvuV55RN8hOEkCKC1M-V-20" target="VvuV55RN8hOEkCKC1M-V-22">
          <mxGeometry relative="1" as="geometry">
            <Array as="points">
              <mxPoint x="585" y="710" />
            </Array>
          </mxGeometry>
        </mxCell>
        <mxCell id="VvuV55RN8hOEkCKC1M-V-20" value="D" style="shape=parallelogram;perimeter=parallelogramPerimeter;whiteSpace=wrap;html=1;fixedSize=1;" vertex="1" parent="1">
          <mxGeometry x="525" y="585" width="120" height="60" as="geometry" />
        </mxCell>
        <mxCell id="wzfU_C4VJpPvnnUy72zV-11" style="edgeStyle=orthogonalEdgeStyle;rounded=0;orthogonalLoop=1;jettySize=auto;html=1;entryX=1;entryY=0.5;entryDx=0;entryDy=0;" edge="1" parent="1" source="VvuV55RN8hOEkCKC1M-V-22" target="wzfU_C4VJpPvnnUy72zV-10">
          <mxGeometry relative="1" as="geometry">
            <Array as="points">
              <mxPoint x="675" y="985" />
            </Array>
          </mxGeometry>
        </mxCell>
        <mxCell id="VvuV55RN8hOEkCKC1M-V-22" value="" style="ellipse;whiteSpace=wrap;html=1;" vertex="1" parent="1">
          <mxGeometry x="650" y="690" width="50" height="50" as="geometry" />
        </mxCell>
        <mxCell id="VvuV55RN8hOEkCKC1M-V-25" value="F" style="text;html=1;align=center;verticalAlign=middle;resizable=0;points=[];autosize=1;strokeColor=none;fillColor=none;" vertex="1" parent="1">
          <mxGeometry x="585" y="498" width="30" height="30" as="geometry" />
        </mxCell>
        <mxCell id="wzfU_C4VJpPvnnUy72zV-6" value="" style="edgeStyle=orthogonalEdgeStyle;rounded=0;orthogonalLoop=1;jettySize=auto;html=1;" edge="1" parent="1" source="VvuV55RN8hOEkCKC1M-V-30" target="wzfU_C4VJpPvnnUy72zV-5">
          <mxGeometry relative="1" as="geometry">
            <Array as="points">
              <mxPoint x="540" y="740" />
            </Array>
          </mxGeometry>
        </mxCell>
        <mxCell id="VvuV55RN8hOEkCKC1M-V-30" value="C &amp;gt; D" style="rhombus;whiteSpace=wrap;html=1;" vertex="1" parent="1">
          <mxGeometry x="414" y="700" width="80" height="80" as="geometry" />
        </mxCell>
        <mxCell id="VvuV55RN8hOEkCKC1M-V-37" style="edgeStyle=orthogonalEdgeStyle;rounded=0;orthogonalLoop=1;jettySize=auto;html=1;entryX=0.5;entryY=0;entryDx=0;entryDy=0;" edge="1" parent="1" source="VvuV55RN8hOEkCKC1M-V-32" target="VvuV55RN8hOEkCKC1M-V-36">
          <mxGeometry relative="1" as="geometry" />
        </mxCell>
        <mxCell id="VvuV55RN8hOEkCKC1M-V-40" value="" style="edgeStyle=orthogonalEdgeStyle;rounded=0;orthogonalLoop=1;jettySize=auto;html=1;" edge="1" parent="1" source="VvuV55RN8hOEkCKC1M-V-32" target="VvuV55RN8hOEkCKC1M-V-39">
          <mxGeometry relative="1" as="geometry">
            <Array as="points">
              <mxPoint x="120" y="450" />
            </Array>
          </mxGeometry>
        </mxCell>
        <mxCell id="VvuV55RN8hOEkCKC1M-V-32" value="B &amp;gt; C" style="rhombus;whiteSpace=wrap;html=1;" vertex="1" parent="1">
          <mxGeometry x="160" y="410" width="80" height="80" as="geometry" />
        </mxCell>
        <mxCell id="VvuV55RN8hOEkCKC1M-V-34" value="F" style="text;html=1;align=center;verticalAlign=middle;resizable=0;points=[];autosize=1;strokeColor=none;fillColor=none;" vertex="1" parent="1">
          <mxGeometry x="250" y="358" width="30" height="30" as="geometry" />
        </mxCell>
        <mxCell id="VvuV55RN8hOEkCKC1M-V-35" value="F" style="text;html=1;align=center;verticalAlign=middle;resizable=0;points=[];autosize=1;strokeColor=none;fillColor=none;" vertex="1" parent="1">
          <mxGeometry x="455" y="418" width="30" height="30" as="geometry" />
        </mxCell>
        <mxCell id="wzfU_C4VJpPvnnUy72zV-14" value="" style="edgeStyle=orthogonalEdgeStyle;rounded=0;orthogonalLoop=1;jettySize=auto;html=1;" edge="1" parent="1" source="VvuV55RN8hOEkCKC1M-V-36" target="wzfU_C4VJpPvnnUy72zV-13">
          <mxGeometry relative="1" as="geometry">
            <Array as="points">
              <mxPoint x="384" y="530" />
            </Array>
          </mxGeometry>
        </mxCell>
        <mxCell id="wzfU_C4VJpPvnnUy72zV-18" style="edgeStyle=orthogonalEdgeStyle;rounded=0;orthogonalLoop=1;jettySize=auto;html=1;entryX=0.5;entryY=0;entryDx=0;entryDy=0;" edge="1" parent="1" source="VvuV55RN8hOEkCKC1M-V-36" target="wzfU_C4VJpPvnnUy72zV-17">
          <mxGeometry relative="1" as="geometry">
            <Array as="points">
              <mxPoint x="210" y="530" />
            </Array>
          </mxGeometry>
        </mxCell>
        <mxCell id="VvuV55RN8hOEkCKC1M-V-36" value="B &amp;gt; D" style="rhombus;whiteSpace=wrap;html=1;" vertex="1" parent="1">
          <mxGeometry x="260" y="490" width="80" height="80" as="geometry" />
        </mxCell>
        <mxCell id="wzfU_C4VJpPvnnUy72zV-23" value="" style="edgeStyle=orthogonalEdgeStyle;rounded=0;orthogonalLoop=1;jettySize=auto;html=1;" edge="1" parent="1" source="VvuV55RN8hOEkCKC1M-V-39" target="wzfU_C4VJpPvnnUy72zV-22">
          <mxGeometry relative="1" as="geometry">
            <Array as="points">
              <mxPoint x="210" y="760" />
            </Array>
          </mxGeometry>
        </mxCell>
        <mxCell id="wzfU_C4VJpPvnnUy72zV-25" value="" style="edgeStyle=orthogonalEdgeStyle;rounded=0;orthogonalLoop=1;jettySize=auto;html=1;" edge="1" parent="1" source="VvuV55RN8hOEkCKC1M-V-39" target="wzfU_C4VJpPvnnUy72zV-24">
          <mxGeometry relative="1" as="geometry">
            <Array as="points">
              <mxPoint x="60" y="760" />
            </Array>
          </mxGeometry>
        </mxCell>
        <mxCell id="VvuV55RN8hOEkCKC1M-V-39" value="C &amp;gt; D" style="rhombus;whiteSpace=wrap;html=1;" vertex="1" parent="1">
          <mxGeometry x="80" y="720" width="80" height="80" as="geometry" />
        </mxCell>
        <mxCell id="wzfU_C4VJpPvnnUy72zV-8" style="edgeStyle=orthogonalEdgeStyle;rounded=0;orthogonalLoop=1;jettySize=auto;html=1;entryX=0;entryY=0.5;entryDx=0;entryDy=0;" edge="1" parent="1" source="wzfU_C4VJpPvnnUy72zV-1" target="wzfU_C4VJpPvnnUy72zV-7">
          <mxGeometry relative="1" as="geometry" />
        </mxCell>
        <mxCell id="wzfU_C4VJpPvnnUy72zV-1" value="D" style="shape=parallelogram;perimeter=parallelogramPerimeter;whiteSpace=wrap;html=1;fixedSize=1;" vertex="1" parent="1">
          <mxGeometry x="320" y="800" width="120" height="60" as="geometry" />
        </mxCell>
        <mxCell id="wzfU_C4VJpPvnnUy72zV-3" style="edgeStyle=orthogonalEdgeStyle;rounded=0;orthogonalLoop=1;jettySize=auto;html=1;entryX=0.442;entryY=0.067;entryDx=0;entryDy=0;entryPerimeter=0;" edge="1" parent="1" source="VvuV55RN8hOEkCKC1M-V-30" target="wzfU_C4VJpPvnnUy72zV-1">
          <mxGeometry relative="1" as="geometry">
            <Array as="points">
              <mxPoint x="373" y="740" />
            </Array>
          </mxGeometry>
        </mxCell>
        <mxCell id="wzfU_C4VJpPvnnUy72zV-4" value="F" style="text;html=1;align=center;verticalAlign=middle;resizable=0;points=[];autosize=1;strokeColor=none;fillColor=none;" vertex="1" parent="1">
          <mxGeometry x="375" y="708" width="30" height="30" as="geometry" />
        </mxCell>
        <mxCell id="wzfU_C4VJpPvnnUy72zV-9" style="edgeStyle=orthogonalEdgeStyle;rounded=0;orthogonalLoop=1;jettySize=auto;html=1;entryX=1;entryY=0.5;entryDx=0;entryDy=0;" edge="1" parent="1" source="wzfU_C4VJpPvnnUy72zV-5" target="wzfU_C4VJpPvnnUy72zV-7">
          <mxGeometry relative="1" as="geometry">
            <Array as="points">
              <mxPoint x="540" y="915" />
            </Array>
          </mxGeometry>
        </mxCell>
        <mxCell id="wzfU_C4VJpPvnnUy72zV-5" value="C" style="shape=parallelogram;perimeter=parallelogramPerimeter;whiteSpace=wrap;html=1;fixedSize=1;" vertex="1" parent="1">
          <mxGeometry x="480" y="800" width="120" height="60" as="geometry" />
        </mxCell>
        <mxCell id="wzfU_C4VJpPvnnUy72zV-12" style="edgeStyle=orthogonalEdgeStyle;rounded=0;orthogonalLoop=1;jettySize=auto;html=1;entryX=0;entryY=0.5;entryDx=0;entryDy=0;" edge="1" parent="1" source="wzfU_C4VJpPvnnUy72zV-7" target="wzfU_C4VJpPvnnUy72zV-10">
          <mxGeometry relative="1" as="geometry">
            <Array as="points">
              <mxPoint x="454" y="985" />
            </Array>
          </mxGeometry>
        </mxCell>
        <mxCell id="wzfU_C4VJpPvnnUy72zV-7" value="" style="ellipse;whiteSpace=wrap;html=1;" vertex="1" parent="1">
          <mxGeometry x="429" y="890" width="50" height="50" as="geometry" />
        </mxCell>
        <mxCell id="wzfU_C4VJpPvnnUy72zV-39" style="edgeStyle=orthogonalEdgeStyle;rounded=0;orthogonalLoop=1;jettySize=auto;html=1;entryX=1;entryY=0.5;entryDx=0;entryDy=0;" edge="1" parent="1" source="wzfU_C4VJpPvnnUy72zV-10" target="wzfU_C4VJpPvnnUy72zV-38">
          <mxGeometry relative="1" as="geometry">
            <Array as="points">
              <mxPoint x="610" y="1025" />
            </Array>
          </mxGeometry>
        </mxCell>
        <mxCell id="wzfU_C4VJpPvnnUy72zV-10" value="" style="ellipse;whiteSpace=wrap;html=1;" vertex="1" parent="1">
          <mxGeometry x="585" y="960" width="50" height="50" as="geometry" />
        </mxCell>
        <mxCell id="wzfU_C4VJpPvnnUy72zV-21" style="edgeStyle=orthogonalEdgeStyle;rounded=0;orthogonalLoop=1;jettySize=auto;html=1;entryX=1;entryY=0.5;entryDx=0;entryDy=0;" edge="1" parent="1" source="wzfU_C4VJpPvnnUy72zV-13" target="wzfU_C4VJpPvnnUy72zV-19">
          <mxGeometry relative="1" as="geometry">
            <Array as="points">
              <mxPoint x="384" y="683" />
            </Array>
          </mxGeometry>
        </mxCell>
        <mxCell id="wzfU_C4VJpPvnnUy72zV-13" value="B" style="shape=parallelogram;perimeter=parallelogramPerimeter;whiteSpace=wrap;html=1;fixedSize=1;" vertex="1" parent="1">
          <mxGeometry x="324" y="570" width="120" height="60" as="geometry" />
        </mxCell>
        <mxCell id="wzfU_C4VJpPvnnUy72zV-20" style="edgeStyle=orthogonalEdgeStyle;rounded=0;orthogonalLoop=1;jettySize=auto;html=1;entryX=0;entryY=0.5;entryDx=0;entryDy=0;" edge="1" parent="1" source="wzfU_C4VJpPvnnUy72zV-17" target="wzfU_C4VJpPvnnUy72zV-19">
          <mxGeometry relative="1" as="geometry" />
        </mxCell>
        <mxCell id="wzfU_C4VJpPvnnUy72zV-17" value="D" style="shape=parallelogram;perimeter=parallelogramPerimeter;whiteSpace=wrap;html=1;fixedSize=1;" vertex="1" parent="1">
          <mxGeometry x="150" y="570" width="120" height="60" as="geometry" />
        </mxCell>
        <mxCell id="wzfU_C4VJpPvnnUy72zV-36" style="edgeStyle=orthogonalEdgeStyle;rounded=0;orthogonalLoop=1;jettySize=auto;html=1;entryX=1;entryY=0.5;entryDx=0;entryDy=0;" edge="1" parent="1" source="wzfU_C4VJpPvnnUy72zV-19" target="wzfU_C4VJpPvnnUy72zV-35">
          <mxGeometry relative="1" as="geometry" />
        </mxCell>
        <mxCell id="wzfU_C4VJpPvnnUy72zV-19" value="" style="ellipse;whiteSpace=wrap;html=1;" vertex="1" parent="1">
          <mxGeometry x="270" y="658" width="50" height="50" as="geometry" />
        </mxCell>
        <mxCell id="wzfU_C4VJpPvnnUy72zV-34" style="edgeStyle=orthogonalEdgeStyle;rounded=0;orthogonalLoop=1;jettySize=auto;html=1;entryX=1;entryY=0.5;entryDx=0;entryDy=0;" edge="1" parent="1" source="wzfU_C4VJpPvnnUy72zV-22" target="wzfU_C4VJpPvnnUy72zV-32">
          <mxGeometry relative="1" as="geometry" />
        </mxCell>
        <mxCell id="wzfU_C4VJpPvnnUy72zV-22" value="C" style="shape=parallelogram;perimeter=parallelogramPerimeter;whiteSpace=wrap;html=1;fixedSize=1;" vertex="1" parent="1">
          <mxGeometry x="150" y="800" width="120" height="60" as="geometry" />
        </mxCell>
        <mxCell id="wzfU_C4VJpPvnnUy72zV-33" style="edgeStyle=orthogonalEdgeStyle;rounded=0;orthogonalLoop=1;jettySize=auto;html=1;entryX=0;entryY=0.5;entryDx=0;entryDy=0;" edge="1" parent="1" source="wzfU_C4VJpPvnnUy72zV-24" target="wzfU_C4VJpPvnnUy72zV-32">
          <mxGeometry relative="1" as="geometry" />
        </mxCell>
        <mxCell id="wzfU_C4VJpPvnnUy72zV-24" value="D" style="shape=parallelogram;perimeter=parallelogramPerimeter;whiteSpace=wrap;html=1;fixedSize=1;" vertex="1" parent="1">
          <mxGeometry y="800" width="120" height="60" as="geometry" />
        </mxCell>
        <mxCell id="wzfU_C4VJpPvnnUy72zV-26" value="V" style="text;html=1;align=center;verticalAlign=middle;resizable=0;points=[];autosize=1;strokeColor=none;fillColor=none;" vertex="1" parent="1">
          <mxGeometry x="175" y="728" width="30" height="30" as="geometry" />
        </mxCell>
        <mxCell id="wzfU_C4VJpPvnnUy72zV-27" value="F" style="text;html=1;align=center;verticalAlign=middle;resizable=0;points=[];autosize=1;strokeColor=none;fillColor=none;" vertex="1" parent="1">
          <mxGeometry x="45" y="728" width="30" height="30" as="geometry" />
        </mxCell>
        <mxCell id="wzfU_C4VJpPvnnUy72zV-28" value="V" style="text;html=1;align=center;verticalAlign=middle;resizable=0;points=[];autosize=1;strokeColor=none;fillColor=none;" vertex="1" parent="1">
          <mxGeometry x="285" y="418" width="30" height="30" as="geometry" />
        </mxCell>
        <mxCell id="wzfU_C4VJpPvnnUy72zV-29" value="V" style="text;html=1;align=center;verticalAlign=middle;resizable=0;points=[];autosize=1;strokeColor=none;fillColor=none;" vertex="1" parent="1">
          <mxGeometry x="355" y="498" width="30" height="30" as="geometry" />
        </mxCell>
        <mxCell id="wzfU_C4VJpPvnnUy72zV-30" value="F" style="text;html=1;align=center;verticalAlign=middle;resizable=0;points=[];autosize=1;strokeColor=none;fillColor=none;" vertex="1" parent="1">
          <mxGeometry x="195" y="498" width="30" height="30" as="geometry" />
        </mxCell>
        <mxCell id="wzfU_C4VJpPvnnUy72zV-31" value="F" style="text;html=1;align=center;verticalAlign=middle;resizable=0;points=[];autosize=1;strokeColor=none;fillColor=none;" vertex="1" parent="1">
          <mxGeometry x="105" y="418" width="30" height="30" as="geometry" />
        </mxCell>
        <mxCell id="wzfU_C4VJpPvnnUy72zV-37" style="edgeStyle=orthogonalEdgeStyle;rounded=0;orthogonalLoop=1;jettySize=auto;html=1;entryX=0;entryY=0.5;entryDx=0;entryDy=0;" edge="1" parent="1" source="wzfU_C4VJpPvnnUy72zV-32" target="wzfU_C4VJpPvnnUy72zV-35">
          <mxGeometry relative="1" as="geometry">
            <Array as="points">
              <mxPoint x="130" y="975" />
            </Array>
          </mxGeometry>
        </mxCell>
        <mxCell id="wzfU_C4VJpPvnnUy72zV-32" value="" style="ellipse;whiteSpace=wrap;html=1;" vertex="1" parent="1">
          <mxGeometry x="105" y="870" width="50" height="50" as="geometry" />
        </mxCell>
        <mxCell id="wzfU_C4VJpPvnnUy72zV-40" style="edgeStyle=orthogonalEdgeStyle;rounded=0;orthogonalLoop=1;jettySize=auto;html=1;entryX=0;entryY=0.5;entryDx=0;entryDy=0;" edge="1" parent="1" source="wzfU_C4VJpPvnnUy72zV-35" target="wzfU_C4VJpPvnnUy72zV-38">
          <mxGeometry relative="1" as="geometry">
            <Array as="points">
              <mxPoint x="255" y="1025" />
            </Array>
          </mxGeometry>
        </mxCell>
        <mxCell id="wzfU_C4VJpPvnnUy72zV-35" value="" style="ellipse;whiteSpace=wrap;html=1;" vertex="1" parent="1">
          <mxGeometry x="230" y="950" width="50" height="50" as="geometry" />
        </mxCell>
        <mxCell id="wzfU_C4VJpPvnnUy72zV-42" value="" style="edgeStyle=orthogonalEdgeStyle;rounded=0;orthogonalLoop=1;jettySize=auto;html=1;" edge="1" parent="1" source="wzfU_C4VJpPvnnUy72zV-38" target="wzfU_C4VJpPvnnUy72zV-41">
          <mxGeometry relative="1" as="geometry" />
        </mxCell>
        <mxCell id="wzfU_C4VJpPvnnUy72zV-38" value="" style="ellipse;whiteSpace=wrap;html=1;" vertex="1" parent="1">
          <mxGeometry x="375" y="1000" width="50" height="50" as="geometry" />
        </mxCell>
        <mxCell id="wzfU_C4VJpPvnnUy72zV-41" value="" style="ellipse;whiteSpace=wrap;html=1;fillColor=#000000;" vertex="1" parent="1">
          <mxGeometry x="375" y="1080" width="50" height="50" as="geometry" />
        </mxCell>
        <mxCell id="Q3pJ_OpK5uqCqx-ptAqc-1" value="V" style="text;html=1;align=center;verticalAlign=middle;resizable=0;points=[];autosize=1;strokeColor=none;fillColor=none;" vertex="1" parent="1">
          <mxGeometry x="515" y="708" width="30" height="30" as="geometry" />
        </mxCell>
        <mxCell id="Q3pJ_OpK5uqCqx-ptAqc-2" value="o" style="text;html=1;align=center;verticalAlign=middle;resizable=0;points=[];autosize=1;strokeColor=none;fillColor=none;" vertex="1" parent="1">
          <mxGeometry x="575" y="768" width="30" height="30" as="geometry" />
        </mxCell>
        <mxCell id="Q3pJ_OpK5uqCqx-ptAqc-3" value="o" style="text;html=1;align=center;verticalAlign=middle;resizable=0;points=[];autosize=1;strokeColor=none;fillColor=none;" vertex="1" parent="1">
          <mxGeometry x="405" y="768" width="30" height="30" as="geometry" />
        </mxCell>
        <mxCell id="Q3pJ_OpK5uqCqx-ptAqc-4" value="o" style="text;html=1;align=center;verticalAlign=middle;resizable=0;points=[];autosize=1;strokeColor=none;fillColor=none;" vertex="1" parent="1">
          <mxGeometry x="240" y="768" width="30" height="30" as="geometry" />
        </mxCell>
        <mxCell id="Q3pJ_OpK5uqCqx-ptAqc-5" value="o" style="text;html=1;align=center;verticalAlign=middle;resizable=0;points=[];autosize=1;strokeColor=none;fillColor=none;" vertex="1" parent="1">
          <mxGeometry x="75" y="770" width="30" height="30" as="geometry" />
        </mxCell>
        <mxCell id="Q3pJ_OpK5uqCqx-ptAqc-6" value="o" style="text;html=1;align=center;verticalAlign=middle;resizable=0;points=[];autosize=1;strokeColor=none;fillColor=none;" vertex="1" parent="1">
          <mxGeometry x="240" y="540" width="30" height="30" as="geometry" />
        </mxCell>
        <mxCell id="Q3pJ_OpK5uqCqx-ptAqc-7" value="o" style="text;html=1;align=center;verticalAlign=middle;resizable=0;points=[];autosize=1;strokeColor=none;fillColor=none;" vertex="1" parent="1">
          <mxGeometry x="414" y="540" width="30" height="30" as="geometry" />
        </mxCell>
        <mxCell id="Q3pJ_OpK5uqCqx-ptAqc-8" value="o" style="text;html=1;align=center;verticalAlign=middle;resizable=0;points=[];autosize=1;strokeColor=none;fillColor=none;" vertex="1" parent="1">
          <mxGeometry x="424" y="550" width="30" height="30" as="geometry" />
        </mxCell>
        <mxCell id="Q3pJ_OpK5uqCqx-ptAqc-9" value="o" style="text;html=1;align=center;verticalAlign=middle;resizable=0;points=[];autosize=1;strokeColor=none;fillColor=none;" vertex="1" parent="1">
          <mxGeometry x="620" y="555" width="30" height="30" as="geometry" />
        </mxCell>
        <mxCell id="Q3pJ_OpK5uqCqx-ptAqc-10" value="o" style="text;html=1;align=center;verticalAlign=middle;resizable=0;points=[];autosize=1;strokeColor=none;fillColor=none;" vertex="1" parent="1">
          <mxGeometry x="790" y="555" width="30" height="30" as="geometry" />
        </mxCell>
        <mxCell id="Q3pJ_OpK5uqCqx-ptAqc-11" value="i" style="text;html=1;align=center;verticalAlign=middle;resizable=0;points=[];autosize=1;strokeColor=none;fillColor=none;" vertex="1" parent="1">
          <mxGeometry x="455" y="248" width="30" height="30" as="geometry" />
        </mxCell>
      </root>
    </mxGraphModel>
  </diagram>
</mxfile>
